<svg xmlns="http://www.w3.org/2000/svg" viewBox="0 0 820 312" width="820" height="312" role="img" aria-label="Flipped Garage LLC Facebook cover">
  <defs>
    <pattern id="cov" width="56" height="56" patternUnits="userSpaceOnUse">
      <g fill="none" stroke="#1a1a17" stroke-width="2" opacity="0.06">
        <path d="M0,18 L28,4 L56,18"/><path d="M0,38 L28,24 L56,38"/>
      </g>
    </pattern>
  </defs>
  <rect width="820" height="312" fill="#f5f1e0"/>
  <rect width="820" height="312" fill="url(#cov)"/>
  <rect x="0" y="0" width="820" height="8" fill="#2f5875"/>
  <rect x="0" y="304" width="820" height="8" fill="#2f5875"/>

  <g style="color:#1a1a17" font-family="Georgia,'Times New Roman',serif">
    <circle cx="150" cy="156" r="116" fill="#f5f1e0" stroke="currentColor" stroke-width="3"/>
    <circle cx="150" cy="156" r="107" fill="none" stroke="currentColor" stroke-width="1.1"/>
    <g transform="translate(150,150) scale(0.82)"><g transform="scale(1,-1)"><g transform="translate(-133,-69)">
      <g fill="none" stroke="currentColor" stroke-width="3.6" stroke-linejoin="round" stroke-linecap="round">
        <path d="M16,88 L16,58 L130,58 L140,36 L172,36 L176,56 L198,56 Q228,56 240,64 Q250,68 250,78 L250,88 L216,88 A22,22 0 0 0 172,88 L88,88 A22,22 0 0 0 44,88 L16,88 Z"/>
        <path d="M144,54 L148,39 L168,39 L172,54 Z"/>
        <line x1="158" y1="40" x2="158" y2="86"/>
        <circle cx="66" cy="86" r="16"/><circle cx="66" cy="86" r="7"/>
        <circle cx="194" cy="86" r="16"/><circle cx="194" cy="86" r="7"/>
      </g>
    </g></g></g>
    <text x="150" y="238" font-size="16" font-weight="700" letter-spacing="5" text-anchor="middle" fill="currentColor">EST. 2026</text>

    <text x="315" y="118" font-size="52" font-weight="700" letter-spacing="1" fill="#1a1a17">FLIPPED GARAGE</text>
    <text x="317" y="152" font-size="20" letter-spacing="4" fill="#2f5875">AUTO REPAIR &#183; ACCESSORIES &#183; WE BUY CARS</text>
    <line x1="317" y1="172" x2="770" y2="172" stroke="#1a1a17" stroke-width="1" opacity="0.4"/>
    <text x="315" y="212" font-size="26" font-weight="700" fill="#1a1a17">(405) 673-7574</text>
    <text x="317" y="242" font-size="18" fill="#46443d">800 N Western Ave, Oklahoma City &#183; By appointment</text>
  </g>
</svg>
