<svg xmlns="http://www.w3.org/2000/svg" viewBox="0 0 64 64" width="64" height="64" role="img" aria-label="Flipped Garage">
  <rect width="64" height="64" rx="14" fill="#1a1a17"/>
  <g transform="translate(32,31) scale(0.235)"><g transform="scale(1,-1)"><g transform="translate(-107,-77)">
    <g fill="none" stroke="#f5f1e0" stroke-width="12" stroke-linejoin="round" stroke-linecap="round">
      <path d="M16,94 L16,70 L96,70 L104,46 L140,46 L148,62 L170,62 Q196,62 200,78 L200,88 Q200,94 194,94 L180,94 A20,20 0 0 0 144,94 L78,94 A20,20 0 0 0 42,94 L16,94 Z"/>
      <circle cx="60" cy="94" r="16"/><circle cx="162" cy="94" r="16"/>
    </g>
  </g></g></g>
</svg>
