<svg xmlns="http://www.w3.org/2000/svg" viewBox="0 0 780 220" width="780" height="220" role="img" aria-label="Flipped Garage LLC">
  <g style="color:#1a1a17" font-family="Georgia,'Times New Roman',serif">
    <circle cx="120" cy="110" r="96" fill="none" stroke="currentColor" stroke-width="3.2"/>
    <circle cx="120" cy="110" r="88" fill="none" stroke="currentColor" stroke-width="1.2"/>
    <g transform="translate(120,110) scale(0.82)"><g transform="scale(1,-1)"><g transform="translate(-107,-77)"><g fill="none" stroke="currentColor" stroke-width="3.8" stroke-linejoin="round" stroke-linecap="round">
<path d="M16,94 L16,70 L96,70 L104,46 L140,46 L148,62 L170,62 Q196,62 200,78 L200,88 Q200,94 194,94 L180,94 A20,20 0 0 0 144,94 L78,94 A20,20 0 0 0 42,94 L16,94 Z"/>
<path d="M108,60 L112,48 L138,48 L142,60 Z"/>
<line x1="125" y1="60" x2="125" y2="92"/>
<line x1="18" y1="80" x2="96" y2="80"/>
<circle cx="182" cy="70" r="5"/>
<line x1="194" y1="74" x2="194" y2="88"/><line x1="197" y1="76" x2="197" y2="86"/>
<g><circle cx="60" cy="94" r="16"/><circle cx="60" cy="94" r="7"/><line x1="49" y1="83" x2="71" y2="105"/><line x1="49" y1="105" x2="71" y2="83"/></g>
<g><circle cx="162" cy="94" r="16"/><circle cx="162" cy="94" r="7"/><line x1="151" y1="83" x2="173" y2="105"/><line x1="151" y1="105" x2="173" y2="83"/></g>
</g></g></g></g>
    <text x="248" y="94" font-size="68" font-weight="700" letter-spacing="2" fill="currentColor">FLIPPED</text>
    <text x="248" y="158" font-size="68" font-weight="700" letter-spacing="12" fill="currentColor">GARAGE</text>
    <line x1="250" y1="176" x2="620" y2="176" stroke="currentColor" stroke-width="1.2" opacity="0.5"/>
    <text x="250" y="198" font-size="18" letter-spacing="6" fill="#2f5875">LLC &#183; EST. 2026 &#183; OKLAHOMA CITY</text>
  </g>
</svg>
