<svg xmlns="http://www.w3.org/2000/svg" viewBox="0 0 400 400" width="400" height="400" role="img" aria-label="Flipped Garage FG monogram">
  <circle cx="200" cy="200" r="192" fill="#f5f1e0"/>
  <g style="color:#1a1a17" font-family="Georgia,'Times New Roman',serif">
    <circle cx="200" cy="200" r="186" fill="none" stroke="currentColor" stroke-width="3"/>
    <circle cx="200" cy="200" r="176" fill="none" stroke="currentColor" stroke-width="1.2"/>
    <g transform="translate(200,114) scale(0.56)"><g transform="scale(1,-1)"><g transform="translate(-107,-77)"><g fill="none" stroke="currentColor" stroke-width="6" stroke-linejoin="round" stroke-linecap="round">
<path d="M16,94 L16,70 L96,70 L104,46 L140,46 L148,62 L170,62 Q196,62 200,78 L200,88 Q200,94 194,94 L180,94 A20,20 0 0 0 144,94 L78,94 A20,20 0 0 0 42,94 L16,94 Z"/>
<path d="M108,60 L112,48 L138,48 L142,60 Z"/>
<circle cx="60" cy="94" r="16"/><circle cx="162" cy="94" r="16"/>
</g></g></g></g>
    <text x="200" y="270" font-size="150" font-weight="700" letter-spacing="4" text-anchor="middle" fill="currentColor">FG</text>
    <text x="200" y="320" font-size="20" font-weight="700" letter-spacing="8" text-anchor="middle" fill="currentColor">EST. 2026</text>
  </g>
</svg>
